<svg version="1.0" xmlns="http://www.w3.org/2000/svg" viewBox="0 0 230.000000 230.000000" preserveAspectRatio="xMidYMid meet">
    <g transform="translate(-110.000000,895.000000) scale(0.050000,-0.050000)" fill="#FFF">
        <path d="M2465 17546 c-103 -20 -156 -364 -74 -482 l31 -44 879 0 c852 0 880 -1 919 -40 39 -39 40 -67 40 -1746 0 -1300 6 -1712 24 -1730 45 -45 450 -32 475 15 14 25 21 608 21 1749 0 1671 1 1711 39 1731 25 14 347 21 908 21 1026 0 933 -26 933 258 0 308 276 272 -2103 274 -1126 2 -2067 -1 -2092 -6z"/>
        <path d="M2440 16686 c-64 -23 -80 -73 -80 -258 0 -284 -35 -267 580 -273 l510 -5 10 -1130 c6 -621 17 -1141 26 -1155 32 -50 426 -33 463 19 55 79 46 2721 -9 2776 -39 39 -1398 63 -1500 26z"/>
        <path d="M5104 16669 l-44 -31 0 -1375 c0 -1043 6 -1381 24 -1399 39 -39 424 -32 457 8 21 25 28 263 32 1155 l5 1123 515 5 c613 7 567 -15 567 266 0 303 70 279 -800 279 -611 0 -717 -4 -756 -31z"/>
    </g>
</svg>
